<?xml version="1.0" encoding="utf-8" standalone="no"?>
<!DOCTYPE svg PUBLIC "-//W3C//DTD SVG 1.1//EN"
  "http://www.w3.org/Graphics/SVG/1.1/DTD/svg11.dtd">
<svg xmlns:xlink="http://www.w3.org/1999/xlink" width="846pt" height="846pt" viewBox="0 0 846 846" xmlns="http://www.w3.org/2000/svg" version="1.1">
 <metadata>
  <rdf:RDF xmlns:dc="http://purl.org/dc/elements/1.1/" xmlns:cc="http://creativecommons.org/ns#" xmlns:rdf="http://www.w3.org/1999/02/22-rdf-syntax-ns#">
   <cc:Work>
    <dc:type rdf:resource="http://purl.org/dc/dcmitype/StillImage"/>
    <dc:date>2022-03-03T14:48:59.597894</dc:date>
    <dc:format>image/svg+xml</dc:format>
    <dc:creator>
     <cc:Agent>
      <dc:title>Matplotlib v3.5.1, https://matplotlib.org/</dc:title>
     </cc:Agent>
    </dc:creator>
   </cc:Work>
  </rdf:RDF>
 </metadata>
 <defs>
  <style type="text/css">*{stroke-linejoin: round; stroke-linecap: butt}</style>
 </defs>
 <g id="figure_1">
  <g id="patch_1">
   <path d="M 0 846 
L 846 846 
L 846 0 
L 0 0 
L 0 846 
z
" style="fill: none"/>
  </g>
  <g id="patch_2">
   <path d="M 7.2 838.8 
L 838.8 838.8 
L 838.8 7.2 
L 7.2 7.2 
L 7.2 838.8 
z
" style="fill: none"/>
  </g>
  <g id="axes_1">
   <g id="line2d_1">
    <path d="M 496.887227 296.595385 
L 481.823849 295.477632 
L 466.08689 294.518762 
L 449.649404 293.722734 
L 432.476314 293.097953 
L 414.529211 292.657922 
L 395.772508 292.422076 
L 376.181971 292.41683 
L 358.724997 292.621876 
L 340.677318 293.048989 
L 322.095935 293.731328 
L 306.278997 294.523168 
L 290.263182 295.545769 
L 274.192462 296.828304 
L 261.430117 298.06262 
L 248.897886 299.500227 
L 236.768575 301.157795 
L 228.063088 302.554802 
L 219.810868 304.090206 
L 212.134593 305.768722 
L 205.172887 307.593484 
L 201.004341 308.89184 
L 197.271107 310.255336 
L 194.025247 311.682978 
L 191.321069 313.173044 
L 189.214598 314.722986 
L 188.403316 315.519368 
L 187.762897 316.329343 
L 187.300498 317.152324 
L 187.023228 317.987651 
L 186.93811 318.834598 
L 187.052043 319.692366 
L 187.371767 320.560083 
L 187.903812 321.436806 
L 188.65446 322.321515 
L 189.629695 323.213116 
L 190.835158 324.110441 
L 192.276091 325.012249 
L 193.957296 325.917228 
L 198.057197 327.731109 
L 203.162464 329.54026 
L 209.290431 331.331934 
L 216.446729 333.092633 
L 224.624072 334.808327 
L 233.801324 336.46472 
L 243.94294 338.047536 
L 254.998842 339.542845 
L 266.904771 340.937386 
L 279.583135 342.218895 
L 292.944346 343.376409 
L 306.888596 344.400534 
L 321.308006 345.283671 
L 336.089054 346.020174 
L 351.115154 346.606452 
L 366.269285 347.040987 
L 381.436531 347.324302 
L 403.972094 347.471587 
L 425.94669 347.300087 
L 447.061738 346.832672 
L 467.071277 346.097688 
L 485.785221 345.127023 
L 503.068668 343.954289 
L 518.838114 342.613228 
L 533.055541 341.136437 
L 545.721324 339.554414 
L 556.866747 337.894932 
L 566.546746 336.182683 
L 574.833284 334.439154 
L 581.809593 332.682673 
L 587.565379 330.92858 
L 590.770088 329.766835 
L 593.500768 328.614911 
L 595.784418 327.475473 
L 597.647411 326.350783 
L 599.115315 325.242734 
L 600.212743 324.152889 
L 600.963259 323.08252 
L 601.389303 322.032636 
L 601.512155 321.004021 
L 601.351911 319.997255 
L 600.927489 319.012744 
L 600.256642 318.050745 
L 599.355981 317.111383 
L 598.241013 316.194675 
L 596.198046 314.861893 
L 593.749632 313.579304 
L 590.935467 312.346024 
L 586.674692 310.776421 
L 581.898565 309.289483 
L 576.668439 307.881922 
L 569.569944 306.228937 
L 561.923874 304.688142 
L 552.115323 302.978541 
L 541.693756 301.411747 
L 530.718022 299.979269 
L 517.263453 298.468565 
L 503.140921 297.12293 
L 496.887227 296.595385 
L 496.887227 296.595385 
" clip-path="url(#pe88227e02c)" style="fill: none; stroke: #8000ff; stroke-width: 1.5; stroke-linecap: square"/>
   </g>
   <g id="line2d_2">
    <path d="M 478.936913 293.061616 
L 465.421894 290.733913 
L 451.590484 288.561088 
L 437.429294 286.545407 
L 422.923279 284.692564 
L 408.058051 283.012252 
L 392.822692 281.51888 
L 377.213343 280.232457 
L 363.925114 279.337562 
L 350.3963 278.624429 
L 336.652942 278.117179 
L 322.737545 277.845097 
L 311.523805 277.820179 
L 300.286717 277.989194 
L 289.086925 278.376109 
L 278.00296 279.007985 
L 269.82532 279.66071 
L 261.820223 280.482053 
L 254.048468 281.48681 
L 246.581165 282.690557 
L 239.500799 284.109447 
L 235.04181 285.183016 
L 230.827971 286.364372 
L 226.893253 287.658287 
L 223.274322 289.069356 
L 220.010519 290.601908 
L 217.143787 292.259892 
L 214.718512 294.046746 
L 212.781283 295.965257 
L 212.010765 296.974538 
L 211.380548 298.0174 
L 210.896902 299.093935 
L 210.566147 300.204161 
L 210.394634 301.348016 
L 210.388717 302.525355 
L 210.55473 303.735939 
L 210.898954 304.979432 
L 211.42759 306.255396 
L 212.146722 307.56328 
L 213.062285 308.902421 
L 214.180021 310.272034 
L 215.505444 311.671207 
L 217.043798 313.098897 
L 218.800007 314.553927 
L 220.77864 316.034982 
L 225.419364 319.069196 
L 230.993538 322.188156 
L 237.519999 325.376175 
L 245.007415 328.615316 
L 253.452981 331.885515 
L 262.841301 335.164801 
L 273.143575 338.429599 
L 284.317122 341.655114 
L 296.305337 344.815801 
L 309.038109 347.885887 
L 322.432727 350.839942 
L 336.39526 353.65347 
L 350.822376 356.303488 
L 365.603522 358.769067 
L 380.623388 361.031817 
L 395.764513 363.076282 
L 410.909938 364.890229 
L 425.945761 366.464827 
L 440.763493 367.794705 
L 455.262116 368.877896 
L 469.349767 369.715679 
L 482.945015 370.312326 
L 495.977709 370.67479 
L 508.389401 370.81233 
L 520.133387 370.736119 
L 531.174411 370.458838 
L 541.488082 369.99428 
L 551.060073 369.356971 
L 559.88517 368.561832 
L 567.966223 367.623873 
L 575.31305 366.557931 
L 581.94135 365.378459 
L 587.871644 364.099348 
L 593.128286 362.733803 
L 597.738553 361.294238 
L 601.731829 359.792228 
L 605.138883 358.238461 
L 607.991253 356.642742 
L 610.320717 355.01399 
L 612.158858 353.36027 
L 613.536714 351.688822 
L 614.48449 350.006109 
L 615.031348 348.317859 
L 615.205247 346.629123 
L 615.032827 344.944323 
L 614.539344 343.267306 
L 613.748627 341.601397 
L 612.683067 339.949445 
L 611.363631 338.313873 
L 609.809886 336.696723 
L 608.040039 335.099692 
L 605.016703 332.744853 
L 601.596685 330.441979 
L 597.825932 328.193565 
L 593.745003 326.001184 
L 587.882264 323.166525 
L 581.603488 320.433287 
L 574.969021 317.800495 
L 568.028742 315.266211 
L 558.984918 312.232914 
L 549.589988 309.343634 
L 539.891962 306.592132 
L 529.926311 303.972191 
L 517.649189 300.993669 
L 505.050642 298.18707 
L 492.145198 295.544904 
L 478.936913 293.061616 
L 478.936913 293.061616 
" clip-path="url(#pe88227e02c)" style="fill: none; stroke: #4e4dfc; stroke-width: 1.5; stroke-linecap: square"/>
   </g>
   <g id="line2d_3">
    <path d="M 460.986311 285.599632 
L 447.404317 282.149746 
L 433.678504 278.931 
L 419.798847 275.947158 
L 408.10879 273.646359 
L 396.303213 271.523175 
L 384.382511 269.589329 
L 372.351731 267.860409 
L 360.222402 266.356493 
L 348.014837 265.102872 
L 338.213491 264.301029 
L 328.405563 263.698551 
L 318.622106 263.317901 
L 308.903713 263.185132 
L 299.302615 263.330251 
L 292.218057 263.64192 
L 285.270529 264.14526 
L 278.500213 264.857923 
L 271.954198 265.799078 
L 265.687324 266.989374 
L 261.695446 267.932149 
L 257.87675 269.002265 
L 254.254324 270.206775 
L 250.853329 271.552891 
L 247.701081 273.047934 
L 244.827108 274.699257 
L 242.263182 276.514157 
L 240.043312 278.499768 
L 238.203687 280.662929 
L 237.438348 281.813111 
L 236.782573 283.010036 
L 236.241437 284.254404 
L 235.820122 285.546865 
L 235.523898 286.888012 
L 235.358118 288.278373 
L 235.328201 289.718401 
L 235.439617 291.208472 
L 235.697871 292.74887 
L 236.108482 294.339784 
L 236.676964 295.981295 
L 237.408802 297.67337 
L 238.309426 299.415852 
L 239.384184 301.20845 
L 240.638313 303.050728 
L 242.076908 304.9421 
L 243.704887 306.881819 
L 245.526958 308.868965 
L 247.547578 310.902443 
L 252.200823 315.103059 
L 257.693816 319.471026 
L 264.049178 323.990396 
L 271.28161 328.641791 
L 279.39656 333.402346 
L 288.388989 338.245768 
L 298.242289 343.142498 
L 308.927437 348.060014 
L 320.402451 352.96326 
L 332.612226 357.815204 
L 345.488785 362.577521 
L 358.951993 367.211371 
L 372.910733 371.678259 
L 387.264525 375.940913 
L 401.905528 379.96418 
L 416.720864 383.71586 
L 431.595136 387.167454 
L 446.413041 390.294796 
L 461.061954 393.078524 
L 475.434346 395.504381 
L 489.429954 397.563337 
L 502.9576 399.251536 
L 515.936602 400.570082 
L 528.297764 401.52468 
L 539.983912 402.12517 
L 550.950031 402.384985 
L 561.16302 402.320545 
L 570.601134 401.950655 
L 579.25318 401.29589 
L 587.11752 400.378024 
L 594.200969 399.219501 
L 600.517617 397.842964 
L 606.08766 396.270852 
L 610.936254 394.525062 
L 615.092432 392.626678 
L 618.588121 390.595764 
L 621.457245 388.451213 
L 622.667801 387.341882 
L 623.734951 386.210647 
L 624.663171 385.059504 
L 625.456932 383.890364 
L 626.120689 382.705052 
L 626.658866 381.505313 
L 627.075844 380.292806 
L 627.375951 379.069109 
L 627.642534 376.594066 
L 627.491822 374.091244 
L 626.955663 371.570518 
L 626.064392 369.040645 
L 624.846731 366.509347 
L 623.329731 363.983387 
L 621.538749 361.46865 
L 619.497457 358.970221 
L 617.227871 356.492461 
L 614.7504 354.039079 
L 610.685262 350.411405 
L 606.251972 346.853894 
L 601.501126 343.372739 
L 596.477024 339.972303 
L 591.218272 336.655445 
L 585.758365 333.423806 
L 578.215008 329.248548 
L 570.42265 325.225385 
L 562.428053 321.352061 
L 554.268825 317.625109 
L 543.88322 313.165737 
L 533.331224 308.919199 
L 522.64485 304.875955 
L 511.846133 301.026688 
L 500.94923 297.362716 
L 489.962118 293.8763 
L 478.887991 290.560889 
L 465.483378 286.800968 
L 460.986311 285.599632 
L 460.986311 285.599632 
" clip-path="url(#pe88227e02c)" style="fill: none; stroke: #1996f3; stroke-width: 1.5; stroke-linecap: square"/>
   </g>
   <g id="line2d_4">
    <path d="M 444.344963 274.930778 
L 433.399945 271.406282 
L 422.465972 268.116636 
L 411.539227 265.064664 
L 400.617729 262.256637 
L 389.702298 259.702681 
L 378.79769 257.417287 
L 370.088333 255.795232 
L 361.400475 254.369958 
L 352.745901 253.156629 
L 344.1407 252.173327 
L 335.606216 251.441409 
L 327.170178 250.985886 
L 320.928744 250.842953 
L 314.780739 250.885665 
L 308.747832 251.129452 
L 302.855532 251.59137 
L 297.133722 252.290184 
L 291.61723 253.246442 
L 288.073337 254.037944 
L 284.652006 254.960851 
L 281.368037 256.0226 
L 278.237641 257.230975 
L 275.278527 258.594082 
L 272.509989 260.12033 
L 269.952983 261.818383 
L 267.630198 263.697114 
L 265.566111 265.765538 
L 263.787025 268.032726 
L 262.32108 270.507707 
L 261.198232 273.199337 
L 260.450196 276.116151 
L 260.227098 277.661539 
L 260.110335 279.266189 
L 260.104308 280.930994 
L 260.213496 282.656789 
L 260.442447 284.444342 
L 260.79577 286.294347 
L 261.27812 288.207414 
L 261.894184 290.184058 
L 262.648672 292.22469 
L 264.591738 296.49899 
L 267.144685 301.031128 
L 270.343942 305.819561 
L 274.224216 310.860007 
L 278.817603 316.145069 
L 284.152574 321.663865 
L 290.252892 327.401686 
L 297.136439 333.339696 
L 304.81402 339.454699 
L 313.28817 345.719004 
L 322.552015 352.100396 
L 332.58826 358.562251 
L 343.368358 365.063798 
L 354.851928 371.560565 
L 366.9865 378.004982 
L 379.707619 384.347172 
L 392.939376 390.535882 
L 406.595361 396.519546 
L 420.580043 402.24744 
L 434.79055 407.670865 
L 449.118773 412.744327 
L 463.453719 417.426634 
L 477.684004 421.681873 
L 491.70037 425.480207 
L 505.398101 428.798465 
L 518.679247 431.620487 
L 531.454524 433.93724 
L 543.644861 435.746679 
L 555.182515 437.053407 
L 566.011747 437.868142 
L 576.089081 438.207041 
L 585.383157 438.090925 
L 589.729874 437.869812 
L 593.874248 437.544441 
L 597.815506 437.118348 
L 601.553491 436.595209 
L 605.088631 435.978802 
L 608.421902 435.272993 
L 611.554791 434.481709 
L 614.489255 433.608916 
L 617.227685 432.658597 
L 619.772868 431.634738 
L 622.127944 430.541307 
L 624.296375 429.382238 
L 626.281902 428.161416 
L 628.088515 426.882668 
L 629.720415 425.549745 
L 631.181985 424.166317 
L 632.477755 422.735963 
L 633.612379 421.262161 
L 634.590601 419.748287 
L 635.417236 418.197604 
L 636.097141 416.613262 
L 636.635197 414.998292 
L 637.036291 413.355608 
L 637.305291 411.688001 
L 637.447038 409.998142 
L 637.466325 408.288582 
L 637.36789 406.561749 
L 636.836433 403.065393 
L 635.888988 399.526167 
L 634.560349 395.959368 
L 632.883599 392.378591 
L 630.889988 388.795834 
L 628.608861 385.221612 
L 626.067636 381.665075 
L 623.291811 378.134122 
L 620.305002 374.63552 
L 617.128997 371.175011 
L 612.053621 366.065995 
L 606.657927 361.06626 
L 600.994839 356.185241 
L 595.110255 351.429492 
L 589.043758 346.803212 
L 582.829311 342.308697 
L 576.495902 337.946715 
L 567.908293 332.336023 
L 559.200503 326.95659 
L 550.410419 321.802896 
L 541.567568 316.868107 
L 532.694593 312.144627 
L 523.808495 307.624522 
L 512.700943 302.248297 
L 501.608211 297.162478 
L 490.53955 292.353212 
L 479.498986 287.808164 
L 468.48673 283.516825 
L 457.500341 279.470759 
L 446.535706 275.663832 
L 444.344963 274.930778 
L 444.344963 274.930778 
" clip-path="url(#pe88227e02c)" style="fill: none; stroke: #18cde4; stroke-width: 1.5; stroke-linecap: square"/>
   </g>
   <g id="line2d_5">
    <path d="M 430.107866 262.082512 
L 419.876656 258.315671 
L 409.750483 254.873863 
L 401.724151 252.357594 
L 393.764737 250.057036 
L 385.874417 247.978879 
L 378.057257 246.13205 
L 370.31963 244.527938 
L 362.670692 243.180634 
L 355.122945 242.107224 
L 347.692904 241.328108 
L 342.210234 240.951232 
L 336.816702 240.764991 
L 331.525429 240.782405 
L 326.351876 241.017987 
L 321.314172 241.487838 
L 316.433463 242.209755 
L 311.734304 243.203323 
L 308.716245 244.027138 
L 305.800863 244.988019 
L 302.998529 246.093187 
L 300.320596 247.350254 
L 297.779464 248.767217 
L 295.388655 250.352449 
L 293.162878 252.114689 
L 291.118097 254.063009 
L 289.271593 256.206792 
L 287.642024 258.555675 
L 286.249471 261.119499 
L 285.115474 263.908229 
L 284.263053 266.931862 
L 283.716702 270.200309 
L 283.502365 273.72326 
L 283.64737 277.510014 
L 284.180328 281.569288 
L 285.13098 285.908985 
L 286.529991 290.535936 
L 288.408677 295.455606 
L 290.798652 300.671762 
L 293.731406 306.186109 
L 297.237778 311.997901 
L 301.347344 318.103521 
L 306.087706 324.496051 
L 311.483686 331.164831 
L 317.556428 338.095043 
L 324.322433 345.26731 
L 331.792532 352.657356 
L 339.970838 360.235742 
L 348.853713 367.967708 
L 358.428787 375.813148 
L 368.674096 383.726738 
L 379.557385 391.658259 
L 391.035645 399.55311 
L 403.054933 407.353031 
L 415.550535 414.997034 
L 428.447492 422.422524 
L 441.661532 429.566568 
L 455.100381 436.367293 
L 468.665435 442.765332 
L 482.253747 448.705268 
L 495.760228 454.137001 
L 502.449933 456.648393 
L 509.079995 459.016969 
L 515.637723 461.238473 
L 522.110733 463.309172 
L 528.487009 465.22587 
L 534.754975 466.985927 
L 540.903546 468.587261 
L 546.922188 470.028352 
L 552.800964 471.308242 
L 558.530574 472.426527 
L 564.102397 473.383349 
L 569.508513 474.179376 
L 574.741732 474.815786 
L 579.795605 475.294249 
L 584.664437 475.616892 
L 589.343288 475.786281 
L 593.827969 475.805385 
L 598.115039 475.677547 
L 602.201782 475.406449 
L 606.086196 474.996078 
L 609.766966 474.450695 
L 613.243436 473.774796 
L 616.515582 472.973081 
L 619.583976 472.050419 
L 622.449752 471.011813 
L 625.114569 469.862375 
L 627.580572 468.60729 
L 629.850355 467.251789 
L 631.926918 465.801123 
L 633.813633 464.260539 
L 635.5142 462.635254 
L 637.032615 460.930435 
L 638.373127 459.151182 
L 639.540208 457.30251 
L 640.538514 455.389329 
L 641.372857 453.41644 
L 642.048172 451.388514 
L 642.569487 449.310087 
L 642.941901 447.185554 
L 643.170552 445.019155 
L 643.260601 442.814978 
L 643.217206 440.576951 
L 643.045503 438.308838 
L 642.750593 436.014243 
L 641.81127 431.359191 
L 640.438725 426.637347 
L 638.671016 421.871708 
L 636.544489 417.082803 
L 634.093591 412.288819 
L 631.350739 407.505737 
L 628.346256 402.747494 
L 625.10835 398.026135 
L 621.663132 393.351986 
L 618.034667 388.733801 
L 614.245041 384.178931 
L 608.302107 377.478338 
L 602.102279 370.949559 
L 595.697986 364.603785 
L 589.134205 358.448311 
L 582.449277 352.487276 
L 575.675676 346.722291 
L 568.840735 341.152972 
L 561.967303 335.777388 
L 552.775133 328.905815 
L 543.583751 322.363421 
L 534.420368 316.138866 
L 525.305167 310.219891 
L 516.252661 304.593911 
L 507.27284 299.248468 
L 498.372105 294.171557 
L 489.554051 289.351877 
L 478.649761 283.673237 
L 467.87609 278.362256 
L 457.229692 273.403676 
L 446.705654 268.785294 
L 436.298416 264.498183 
L 430.107866 262.082512 
L 430.107866 262.082512 
" clip-path="url(#pe88227e02c)" style="fill: none; stroke: #4df3ce; stroke-width: 1.5; stroke-linecap: square"/>
   </g>
   <g id="line2d_6">
    <path d="M 419.0725 248.298943 
L 411.641003 245.41181 
L 404.324068 242.795133 
L 397.121738 240.451942 
L 390.0355 238.387583 
L 383.068563 236.609876 
L 376.226183 235.129299 
L 369.516037 233.959211 
L 364.576421 233.295199 
L 359.722699 232.823247 
L 354.961725 232.552717 
L 350.301709 232.494207 
L 345.752385 232.65964 
L 341.325211 233.062354 
L 337.033583 233.717197 
L 332.893084 234.640624 
L 328.921748 235.850785 
L 326.378312 236.826625 
L 323.926139 237.945091 
L 321.572784 239.212922 
L 319.326504 240.637241 
L 317.196306 242.225556 
L 315.191998 243.985761 
L 313.324242 245.926128 
L 311.604607 248.055301 
L 310.045618 250.382275 
L 308.660812 252.916375 
L 307.464782 255.667219 
L 306.473221 258.644671 
L 305.702959 261.858785 
L 305.171988 265.319728 
L 304.899479 269.037689 
L 304.905779 273.022764 
L 305.212392 277.284819 
L 305.841928 281.833332 
L 306.818032 286.677196 
L 308.16527 291.824501 
L 309.908973 297.282275 
L 312.075031 303.056195 
L 314.689639 309.150257 
L 317.778961 315.566416 
L 321.368749 322.304188 
L 325.48386 329.360221 
L 330.147717 336.72785 
L 335.381677 344.396626 
L 341.204319 352.35186 
L 347.630673 360.574164 
L 354.671376 369.039042 
L 362.331793 377.716532 
L 370.611123 386.570939 
L 379.501513 395.560679 
L 388.987234 404.638275 
L 399.043958 413.75052 
L 409.638175 422.838848 
L 420.726824 431.839923 
L 432.257169 440.686453 
L 444.166969 449.308245 
L 456.38498 457.633456 
L 468.831799 465.590044 
L 475.114256 469.40792 
L 481.421064 473.107336 
L 487.740588 476.679943 
L 494.060964 480.117686 
L 500.370158 483.412853 
L 506.656035 486.558125 
L 512.90642 489.546621 
L 519.10917 492.371941 
L 525.25224 495.028207 
L 531.323753 497.510098 
L 537.312063 499.812884 
L 543.205825 501.932445 
L 548.994053 503.8653 
L 554.666182 505.608619 
L 560.212122 507.160231 
L 565.622309 508.518633 
L 570.887748 509.682985 
L 576.000055 510.653107 
L 580.951489 511.429462 
L 585.734984 512.013144 
L 590.344164 512.405854 
L 594.773363 512.609876 
L 599.017633 512.628045 
L 603.072745 512.463715 
L 606.935191 512.120728 
L 610.602169 511.603367 
L 614.071575 510.916325 
L 617.341984 510.064659 
L 620.412625 509.053752 
L 623.283359 507.889269 
L 625.954644 506.577114 
L 628.42751 505.123394 
L 630.703519 503.534374 
L 632.784732 501.816443 
L 634.67367 499.976071 
L 636.373278 498.019781 
L 637.886885 495.954112 
L 639.218167 493.785587 
L 640.371108 491.520687 
L 641.349965 489.165824 
L 642.159229 486.727319 
L 642.80359 484.211377 
L 643.28791 481.624071 
L 643.617181 478.971325 
L 643.796504 476.258898 
L 643.831055 473.492376 
L 643.726062 470.677156 
L 643.486779 467.818445 
L 643.118465 464.921248 
L 642.626359 461.990364 
L 641.291547 456.045701 
L 639.523276 450.018691 
L 637.361205 443.940243 
L 634.843371 437.838011 
L 632.005927 431.736521 
L 628.882971 425.657334 
L 625.506434 419.619229 
L 621.906036 413.638415 
L 618.109281 407.728733 
L 614.141491 401.901876 
L 610.02587 396.16759 
L 605.783591 390.533881 
L 599.22427 382.285637 
L 592.480189 374.294053 
L 585.600365 366.569558 
L 578.626355 359.117928 
L 571.593133 351.94122 
L 564.529894 345.038561 
L 557.460818 338.40682 
L 550.405747 332.041163 
L 543.380804 325.935511 
L 534.08305 318.186997 
L 524.884959 310.870381 
L 515.803096 303.966947 
L 506.848615 297.457925 
L 498.028435 291.325036 
L 489.346198 285.550886 
L 480.803058 280.119252 
L 472.398325 275.015274 
L 464.129995 270.225602 
L 455.995186 265.738498 
L 447.990505 261.543905 
L 440.112363 257.633516 
L 432.357242 254.000826 
L 424.72195 250.641189 
L 419.0725 248.298943 
L 419.0725 248.298943 
" clip-path="url(#pe88227e02c)" style="fill: none; stroke: #80ffb4; stroke-width: 1.5; stroke-linecap: square"/>
   </g>
   <g id="line2d_7">
    <path d="M 411.681837 234.935482 
L 405.116102 232.565537 
L 398.697352 230.528866 
L 392.426692 228.829847 
L 387.82247 227.781352 
L 383.304919 226.930817 
L 378.876579 226.283283 
L 374.540745 225.844806 
L 370.301561 225.622508 
L 366.164113 225.624642 
L 362.134543 225.860651 
L 358.220173 226.341244 
L 354.429639 227.078469 
L 350.773048 228.085789 
L 347.262149 229.378163 
L 345.009114 230.406208 
L 342.831342 231.573562 
L 340.733784 232.885865 
L 338.721856 234.349101 
L 336.801469 235.969603 
L 334.979066 237.754062 
L 333.261662 239.709528 
L 331.656876 241.843411 
L 330.172972 244.163478 
L 328.818899 246.677844 
L 327.604333 249.394962 
L 326.539712 252.323601 
L 325.636276 255.472824 
L 324.906106 258.851946 
L 324.362151 262.470494 
L 324.018259 266.338144 
L 323.889199 270.464651 
L 323.99067 274.859757 
L 324.3393 279.533086 
L 324.952636 284.49401 
L 325.84911 289.751498 
L 327.047982 295.313933 
L 328.569266 301.188907 
L 330.433611 307.382973 
L 332.662158 313.901378 
L 335.276349 320.747745 
L 338.297689 327.923735 
L 341.747457 335.428668 
L 345.646359 343.259107 
L 350.014116 351.408424 
L 354.868991 359.866343 
L 360.227249 368.618465 
L 366.102553 377.645806 
L 372.505308 386.924351 
L 379.441947 396.424643 
L 386.914195 406.111445 
L 394.918316 415.943487 
L 403.444373 425.87334 
L 412.47554 435.847434 
L 421.987493 445.80627 
L 431.947932 455.68483 
L 442.316265 465.413223 
L 453.043513 474.917564 
L 464.072454 484.121101 
L 469.680023 488.585627 
L 475.338051 492.945564 
L 481.037308 497.191144 
L 486.768181 501.312706 
L 492.520714 505.30075 
L 498.284655 509.145996 
L 504.049497 512.839437 
L 509.804533 516.372397 
L 515.538909 519.736588 
L 521.241679 522.924158 
L 526.901868 525.927746 
L 532.508523 528.740528 
L 538.050785 531.356263 
L 543.517941 533.769329 
L 548.899487 535.974762 
L 554.185187 537.968284 
L 559.365129 539.746325 
L 564.429781 541.306046 
L 569.370035 542.645348 
L 574.177264 543.762879 
L 578.843355 544.658033 
L 583.360751 545.330946 
L 587.722483 545.782479 
L 591.922196 546.014208 
L 595.954169 546.028393 
L 599.813337 545.827955 
L 603.495292 545.416441 
L 606.996295 544.797989 
L 610.31327 543.977288 
L 613.443803 542.959535 
L 616.386124 541.750392 
L 619.139101 540.355936 
L 621.702211 538.782616 
L 624.075525 537.037201 
L 626.259676 535.126738 
L 628.255832 533.058499 
L 630.065664 530.839935 
L 631.691315 528.478637 
L 633.135363 525.982287 
L 634.400786 523.358618 
L 635.490926 520.615378 
L 636.409454 517.760291 
L 637.160335 514.801024 
L 637.747789 511.745158 
L 638.17626 508.600155 
L 638.45038 505.373339 
L 638.574941 502.071869 
L 638.55486 498.702722 
L 638.395151 495.272674 
L 638.100901 491.788286 
L 637.67724 488.255893 
L 637.12932 484.681596 
L 635.681288 477.430458 
L 633.797658 470.078714 
L 631.518418 462.666151 
L 628.882238 455.228522 
L 625.926137 447.797635 
L 622.685226 440.401515 
L 619.192543 433.064605 
L 615.478949 425.808 
L 611.573084 418.649701 
L 607.501372 411.604876 
L 603.288057 404.686125 
L 598.955271 397.903738 
L 594.523127 391.26594 
L 587.727917 381.593897 
L 580.803581 372.276221 
L 573.795811 363.321288 
L 566.742981 354.732143 
L 559.677033 346.507639 
L 552.624299 338.643387 
L 545.606271 331.132562 
L 538.640282 323.966563 
L 531.740122 317.135551 
L 524.916582 310.628893 
L 515.95169 302.438722 
L 507.151374 294.778851 
L 498.524312 287.623016 
L 490.075153 280.945951 
L 481.805494 274.723833 
L 473.714678 268.93459 
L 465.800431 263.558108 
L 458.059396 258.576358 
L 450.487553 253.973485 
L 443.08058 249.735856 
L 435.834146 245.852095 
L 428.744171 242.313117 
L 421.807051 239.112151 
L 415.019872 236.244786 
L 411.681837 234.935482 
L 411.681837 234.935482 
" clip-path="url(#pe88227e02c)" style="fill: none; stroke: #b2f396; stroke-width: 1.5; stroke-linecap: square"/>
   </g>
   <g id="line2d_8">
    <path d="M 407.995855 223.343495 
L 403.709573 222.175939 
L 399.515542 221.227363 
L 395.414322 220.499677 
L 391.406985 219.995748 
L 387.495168 219.719436 
L 383.681133 219.675623 
L 379.967834 219.870254 
L 376.358985 220.310378 
L 372.859149 221.004202 
L 369.473818 221.961137 
L 366.209521 223.191858 
L 363.073932 224.708362 
L 361.059403 225.884681 
L 359.109015 227.198249 
L 357.226053 228.653675 
L 355.414125 230.25587 
L 353.677175 232.010049 
L 352.019512 233.92174 
L 350.445832 235.996787 
L 348.961245 238.241355 
L 347.571304 240.661928 
L 346.282028 243.265309 
L 345.099935 246.058617 
L 344.032072 249.049275 
L 343.086043 252.245002 
L 342.270042 255.653792 
L 341.592876 259.283892 
L 341.064003 263.143765 
L 340.693551 267.242055 
L 340.492343 271.587533 
L 340.47192 276.189034 
L 340.64455 281.055382 
L 341.023239 286.195292 
L 341.621726 291.617265 
L 342.454473 297.329456 
L 343.536632 303.339518 
L 344.884007 309.654426 
L 346.512986 316.280273 
L 348.440453 323.222033 
L 350.68367 330.483299 
L 353.260136 338.065983 
L 356.187391 345.969989 
L 359.482801 354.192849 
L 363.16328 362.729337 
L 367.244975 371.571046 
L 371.742894 380.705955 
L 376.670488 390.11798 
L 382.039168 399.786528 
L 387.857793 409.686058 
L 394.132094 419.78569 
L 400.864083 430.048855 
L 408.051428 440.433029 
L 415.686839 450.889584 
L 423.757468 461.363759 
L 432.244365 471.794811 
L 441.122012 482.116358 
L 450.357974 492.256932 
L 459.912705 502.140771 
L 469.739536 511.688854 
L 474.738504 516.311708 
L 479.784884 520.820164 
L 484.87097 525.204027 
L 489.988693 529.45317 
L 495.12965 533.557595 
L 500.285134 537.507485 
L 505.44617 541.293263 
L 510.603553 544.905651 
L 515.747892 548.335727 
L 520.869654 551.574981 
L 525.959212 554.615374 
L 531.006892 557.449387 
L 536.003027 560.070074 
L 540.938012 562.471104 
L 545.802347 564.646811 
L 550.5867 566.592223 
L 555.281951 568.303102 
L 559.879249 569.775964 
L 564.370054 571.008106 
L 568.746187 571.997614 
L 572.999871 572.743376 
L 577.123772 573.24508 
L 581.111033 573.503212 
L 584.955307 573.519042 
L 588.650782 573.294607 
L 592.192206 572.832691 
L 595.5749 572.136791 
L 598.794772 571.211086 
L 601.848327 570.060401 
L 604.732667 568.690161 
L 607.445485 567.106349 
L 609.985068 565.315456 
L 612.350275 563.324433 
L 614.540531 561.140639 
L 616.555803 558.771786 
L 618.396581 556.225893 
L 620.063853 553.511229 
L 621.559078 550.636261 
L 622.884158 547.609608 
L 624.041405 544.439992 
L 625.033516 541.136189 
L 625.863531 537.706989 
L 626.534811 534.161153 
L 627.050998 530.507374 
L 627.415984 526.754244 
L 627.633883 522.910221 
L 627.708995 518.983598 
L 627.645778 514.982482 
L 627.44882 510.914766 
L 627.122811 506.788113 
L 626.672515 502.609935 
L 625.418355 494.127338 
L 623.725083 485.520858 
L 621.631252 476.839773 
L 619.174686 468.128661 
L 616.392034 459.427409 
L 613.318432 450.771327 
L 609.987238 442.191326 
L 606.429864 433.714162 
L 602.67566 425.362708 
L 598.751862 417.156255 
L 594.683584 409.110822 
L 590.493854 401.239468 
L 586.203666 393.552597 
L 581.832072 386.058253 
L 577.396269 378.762395 
L 570.655541 368.199388 
L 563.85017 358.099442 
L 557.018227 348.463683 
L 550.191299 339.288238 
L 543.395313 330.565421 
L 536.651305 322.284722 
L 529.976118 314.433627 
L 523.383028 306.998275 
L 516.882295 299.963998 
L 510.481648 293.315741 
L 504.18671 287.038402 
L 498.001363 281.117088 
L 491.928055 275.537316 
L 484.006686 268.604937 
L 476.287257 262.22396 
L 468.768184 256.365704 
L 461.446381 251.004117 
L 454.317779 246.115888 
L 447.377752 241.680494 
L 440.621464 237.680219 
L 434.044157 234.100149 
L 427.641391 230.928158 
L 421.409261 228.154904 
L 416.845197 226.332582 
L 412.374291 224.729061 
L 407.995855 223.343495 
L 407.995855 223.343495 
" clip-path="url(#pe88227e02c)" style="fill: none; stroke: #e6cd73; stroke-width: 1.5; stroke-linecap: square"/>
   </g>
   <g id="line2d_9">
    <path d="M 407.693578 214.751266 
L 403.993994 214.444938 
L 400.388268 214.383021 
L 396.877181 214.567797 
L 393.462015 215.002575 
L 390.144603 215.691712 
L 386.92738 216.640642 
L 383.813445 217.855899 
L 380.806625 219.345156 
L 377.911544 221.117259 
L 375.13371 223.182262 
L 372.479595 225.551471 
L 369.956742 228.237479 
L 367.573865 231.254203 
L 365.340973 234.616915 
L 363.269496 238.342268 
L 361.984535 241.036154 
L 360.781321 243.904892 
L 359.664481 246.954437 
L 358.639022 250.191011 
L 357.710356 253.621091 
L 356.884322 257.251394 
L 356.167206 261.088863 
L 355.565771 265.140642 
L 355.087274 269.414046 
L 354.739487 273.916531 
L 354.530724 278.65564 
L 354.469852 283.638957 
L 354.566309 288.874037 
L 354.830116 294.368329 
L 355.271882 300.129083 
L 355.9028 306.163242 
L 356.734643 312.477313 
L 357.779738 319.077223 
L 359.050941 325.968145 
L 360.561584 333.154308 
L 362.32541 340.638779 
L 364.356493 348.423211 
L 366.669121 356.507574 
L 369.277666 364.889851 
L 372.196412 373.565704 
L 375.439356 382.52812 
L 379.019968 391.767031 
L 382.950914 401.268914 
L 387.243734 411.016382 
L 391.908485 420.987776 
L 396.953336 431.156764 
L 402.384128 441.491972 
L 408.2039 451.956653 
L 414.412396 462.508432 
L 421.005555 473.099137 
L 427.975007 483.674746 
L 435.30759 494.175486 
L 442.984916 504.536096 
L 450.983006 514.68629 
L 459.272027 524.551428 
L 467.816158 534.053425 
L 472.171057 538.643173 
L 476.573604 543.111872 
L 481.017673 547.449331 
L 485.496804 551.645389 
L 490.004215 555.689976 
L 494.532826 559.57316 
L 499.07528 563.285203 
L 503.623973 566.816623 
L 508.171082 570.158247 
L 512.708599 573.301267 
L 517.228368 576.237302 
L 521.722119 578.958447 
L 526.181514 581.457331 
L 530.598184 583.727164 
L 534.963775 585.761786 
L 539.269992 587.55571 
L 543.508642 589.104162 
L 547.67168 590.40311 
L 551.751251 591.4493 
L 555.739734 592.240271 
L 559.629784 592.774377 
L 563.41437 593.050792 
L 567.08681 593.069519 
L 570.640808 592.83138 
L 574.070483 592.338014 
L 577.370396 591.591855 
L 580.535571 590.596114 
L 583.561521 589.354748 
L 586.444254 587.872431 
L 589.18029 586.154513 
L 591.766668 584.206979 
L 594.200945 582.036406 
L 596.481195 579.649908 
L 598.606009 577.05509 
L 600.574478 574.259995 
L 602.386189 571.273046 
L 604.041201 568.102993 
L 605.540035 564.75886 
L 606.883646 561.249887 
L 608.073407 557.585479 
L 609.111077 553.775156 
L 609.998782 549.828499 
L 610.738983 545.755104 
L 611.33445 541.564542 
L 611.788234 537.26631 
L 612.103637 532.869795 
L 612.284184 528.38424 
L 612.333597 523.81871 
L 612.255766 519.182064 
L 612.054722 514.482927 
L 611.734612 509.729671 
L 610.754218 500.092898 
L 609.349192 490.332969 
L 607.554566 480.506114 
L 605.405222 470.663364 
L 602.935392 460.850491 
L 600.178262 451.108071 
L 597.165656 441.471638 
L 593.9278 431.971924 
L 590.493158 422.635146 
L 586.888328 413.483331 
L 583.137991 404.534663 
L 579.264899 395.803836 
L 575.289902 387.30241 
L 571.232004 379.039152 
L 567.108428 371.020363 
L 562.934713 363.250187 
L 556.610225 352.065609 
L 550.244859 341.446313 
L 543.872798 331.387076 
L 537.522299 321.877805 
L 531.216449 312.904811 
L 524.973872 304.45186 
L 518.809371 296.501023 
L 512.734502 289.033367 
L 506.758084 282.029506 
L 500.886649 275.47002 
L 495.124825 269.335794 
L 489.475679 263.608263 
L 483.940998 258.269599 
L 478.521545 253.302846 
L 473.217259 248.692015 
L 468.027441 244.422146 
L 462.950908 240.479342 
L 457.986114 236.850797 
L 453.131266 233.524794 
L 448.384418 230.490707 
L 443.743547 227.738993 
L 439.206624 225.261173 
L 434.771676 223.04982 
L 430.436834 221.098546 
L 426.200383 219.401983 
L 422.060808 217.955771 
L 418.016826 216.756551 
L 414.067432 215.801955 
L 410.211933 215.090601 
L 407.693578 214.751266 
L 407.693578 214.751266 
" clip-path="url(#pe88227e02c)" style="fill: none; stroke: #ff964f; stroke-width: 1.5; stroke-linecap: square"/>
   </g>
   <g id="line2d_10">
    <path d="M 410.1071 210.148747 
L 406.868143 210.862508 
L 403.7179 211.836483 
L 400.657253 213.07312 
L 397.687549 214.575911 
L 394.81064 216.3494 
L 392.028932 218.399195 
L 389.345438 220.731983 
L 386.763837 223.355547 
L 384.288534 226.278786 
L 381.924737 229.51173 
L 379.678528 233.065557 
L 377.556953 236.952603 
L 375.568115 241.18637 
L 373.721274 245.781518 
L 372.026962 250.753848 
L 370.497099 256.120263 
L 369.145122 261.898706 
L 367.986118 268.108064 
L 367.036964 274.768033 
L 366.316467 281.898922 
L 365.845502 289.521403 
L 365.647142 297.656166 
L 365.746766 306.323483 
L 366.172151 315.542642 
L 366.953509 325.331246 
L 367.688194 332.180901 
L 368.605792 339.294005 
L 369.716986 346.673284 
L 371.032858 354.320393 
L 372.564839 362.235711 
L 374.324641 370.418107 
L 376.324178 378.864682 
L 378.575453 387.570489 
L 381.090433 396.528231 
L 383.880891 405.727935 
L 386.958224 415.156611 
L 390.333231 424.797897 
L 394.015869 434.631701 
L 398.014966 444.633842 
L 402.337906 454.775709 
L 406.990278 465.023946 
L 411.975503 475.340184 
L 417.29443 485.680837 
L 422.94492 495.996983 
L 428.921432 506.234354 
L 435.214609 516.33346 
L 441.8109 526.229869 
L 448.692224 535.854663 
L 455.8357 545.13509 
L 459.497237 549.622589 
L 463.213473 553.995421 
L 466.98014 558.24383 
L 470.792655 562.358019 
L 474.646133 566.328191 
L 478.53539 570.1446 
L 482.454956 573.797599 
L 486.399088 577.277686 
L 490.361787 580.575565 
L 494.336815 583.682192 
L 498.31772 586.588833 
L 502.297856 589.287118 
L 506.270414 591.769096 
L 510.228448 594.027286 
L 514.164908 596.054727 
L 518.072669 597.845032 
L 521.944573 599.39243 
L 525.773455 600.69181 
L 529.552188 601.738758 
L 533.273714 602.529596 
L 536.931086 603.061405 
L 540.517499 603.332053 
L 544.026335 603.34021 
L 547.451187 603.085361 
L 550.785903 602.567814 
L 554.024611 601.788696 
L 557.161753 600.749945 
L 560.192109 599.454303 
L 563.110822 597.905289 
L 565.913421 596.107179 
L 568.595839 594.064975 
L 571.154425 591.784366 
L 573.585958 589.271693 
L 575.887656 586.5339 
L 578.057177 583.578491 
L 580.092622 580.413474 
L 581.992533 577.047316 
L 583.755888 573.488879 
L 585.382089 569.747374 
L 586.870957 565.8323 
L 588.222712 561.753388 
L 589.437962 557.520549 
L 590.517682 553.14382 
L 591.463196 548.63331 
L 592.276152 543.999153 
L 592.958507 539.251458 
L 593.512498 534.400266 
L 593.940619 529.455508 
L 594.2456 524.426966 
L 594.430379 519.32424 
L 594.498081 514.156714 
L 594.295542 503.663553 
L 593.665819 493.017262 
L 592.638281 482.282714 
L 591.24319 471.519446 
L 589.511131 460.781403 
L 587.472516 450.116856 
L 585.157171 439.568441 
L 582.593998 429.173321 
L 579.810706 418.963427 
L 576.833613 408.965766 
L 573.687508 399.202775 
L 570.395559 389.692693 
L 566.979269 380.449956 
L 563.458472 371.485581 
L 559.851348 362.807549 
L 556.174475 354.421171 
L 552.442885 346.329427 
L 548.670145 338.533287 
L 544.868434 331.032005 
L 539.135032 320.327809 
L 533.392419 310.269555 
L 527.666955 300.840419 
L 521.980269 292.020349 
L 516.349887 283.78715 
L 510.789808 276.117351 
L 505.311025 268.986903 
L 499.921991 262.371719 
L 494.629025 256.248092 
L 489.436672 250.593003 
L 484.34801 245.38436 
L 479.364916 240.601154 
L 474.488301 236.223572 
L 469.718299 232.233072 
L 465.054439 228.612415 
L 460.495783 225.345687 
L 456.04105 222.418293 
L 451.688717 219.816947 
L 447.437109 217.529645 
L 443.284471 215.54564 
L 439.229034 213.855412 
L 435.269071 212.450637 
L 431.402949 211.324157 
L 427.629166 210.469947 
L 423.946397 209.883096 
L 420.353529 209.55978 
L 416.849695 209.497243 
L 413.43431 209.693785 
L 410.1071 210.148747 
L 410.1071 210.148747 
" clip-path="url(#pe88227e02c)" style="fill: none; stroke: #ff4d27; stroke-width: 1.5; stroke-linecap: square"/>
   </g>
  </g>
 </g>
 <defs>
  <clipPath id="pe88227e02c">
   <rect x="7.2" y="7.2" width="831.6" height="831.6"/>
  </clipPath>
 </defs>
</svg>
